<mxfile host="Electron" agent="Mozilla/5.0 (X11; Linux x86_64) AppleWebKit/537.36 (KHTML, like Gecko) draw.io/26.1.1 Chrome/132.0.6834.210 Electron/34.3.3 Safari/537.36" version="26.1.1">
  <diagram name="Page-1" id="yhbA_pk5zqcWJt9TO6HN">
    <mxGraphModel dx="1062" dy="617" grid="1" gridSize="10" guides="1" tooltips="1" connect="1" arrows="1" fold="1" page="1" pageScale="1" pageWidth="827" pageHeight="1169" math="0" shadow="0">
      <root>
        <mxCell id="0" />
        <mxCell id="1" parent="0" />
        <mxCell id="xUfsZl-nkuEJm2MdRDHm-5" value="Livre" style="swimlane;fontStyle=0;childLayout=stackLayout;horizontal=1;startSize=30;horizontalStack=0;resizeParent=1;resizeParentMax=0;resizeLast=0;collapsible=1;marginBottom=0;whiteSpace=wrap;html=1;" vertex="1" parent="1">
          <mxGeometry x="520" y="95" width="160" height="90" as="geometry" />
        </mxCell>
        <mxCell id="xUfsZl-nkuEJm2MdRDHm-25" value="&lt;b&gt;id_livre&lt;/b&gt;" style="text;strokeColor=none;fillColor=none;align=left;verticalAlign=middle;spacingLeft=4;spacingRight=4;overflow=hidden;points=[[0,0.5],[1,0.5]];portConstraint=eastwest;rotatable=0;whiteSpace=wrap;html=1;" vertex="1" parent="xUfsZl-nkuEJm2MdRDHm-5">
          <mxGeometry y="30" width="160" height="30" as="geometry" />
        </mxCell>
        <mxCell id="xUfsZl-nkuEJm2MdRDHm-9" value="Titre" style="text;strokeColor=none;fillColor=none;align=left;verticalAlign=middle;spacingLeft=4;spacingRight=4;overflow=hidden;points=[[0,0.5],[1,0.5]];portConstraint=eastwest;rotatable=0;whiteSpace=wrap;html=1;" vertex="1" parent="xUfsZl-nkuEJm2MdRDHm-5">
          <mxGeometry y="60" width="160" height="30" as="geometry" />
        </mxCell>
        <mxCell id="xUfsZl-nkuEJm2MdRDHm-10" value="Client" style="swimlane;fontStyle=0;childLayout=stackLayout;horizontal=1;startSize=30;horizontalStack=0;resizeParent=1;resizeParentMax=0;resizeLast=0;collapsible=1;marginBottom=0;whiteSpace=wrap;html=1;" vertex="1" parent="1">
          <mxGeometry x="160" y="360" width="160" height="180" as="geometry" />
        </mxCell>
        <mxCell id="xUfsZl-nkuEJm2MdRDHm-22" value="&lt;b&gt;id_client&lt;/b&gt;" style="text;strokeColor=none;fillColor=none;align=left;verticalAlign=middle;spacingLeft=4;spacingRight=4;overflow=hidden;points=[[0,0.5],[1,0.5]];portConstraint=eastwest;rotatable=0;whiteSpace=wrap;html=1;" vertex="1" parent="xUfsZl-nkuEJm2MdRDHm-10">
          <mxGeometry y="30" width="160" height="30" as="geometry" />
        </mxCell>
        <mxCell id="xUfsZl-nkuEJm2MdRDHm-11" value="Nom" style="text;strokeColor=none;fillColor=none;align=left;verticalAlign=middle;spacingLeft=4;spacingRight=4;overflow=hidden;points=[[0,0.5],[1,0.5]];portConstraint=eastwest;rotatable=0;whiteSpace=wrap;html=1;" vertex="1" parent="xUfsZl-nkuEJm2MdRDHm-10">
          <mxGeometry y="60" width="160" height="30" as="geometry" />
        </mxCell>
        <mxCell id="xUfsZl-nkuEJm2MdRDHm-12" value="Prénom" style="text;strokeColor=none;fillColor=none;align=left;verticalAlign=middle;spacingLeft=4;spacingRight=4;overflow=hidden;points=[[0,0.5],[1,0.5]];portConstraint=eastwest;rotatable=0;whiteSpace=wrap;html=1;" vertex="1" parent="xUfsZl-nkuEJm2MdRDHm-10">
          <mxGeometry y="90" width="160" height="30" as="geometry" />
        </mxCell>
        <mxCell id="xUfsZl-nkuEJm2MdRDHm-14" value="Téléphone" style="text;strokeColor=none;fillColor=none;align=left;verticalAlign=middle;spacingLeft=4;spacingRight=4;overflow=hidden;points=[[0,0.5],[1,0.5]];portConstraint=eastwest;rotatable=0;whiteSpace=wrap;html=1;" vertex="1" parent="xUfsZl-nkuEJm2MdRDHm-10">
          <mxGeometry y="120" width="160" height="30" as="geometry" />
        </mxCell>
        <mxCell id="xUfsZl-nkuEJm2MdRDHm-13" value="Email" style="text;strokeColor=none;fillColor=none;align=left;verticalAlign=middle;spacingLeft=4;spacingRight=4;overflow=hidden;points=[[0,0.5],[1,0.5]];portConstraint=eastwest;rotatable=0;whiteSpace=wrap;html=1;" vertex="1" parent="xUfsZl-nkuEJm2MdRDHm-10">
          <mxGeometry y="150" width="160" height="30" as="geometry" />
        </mxCell>
        <mxCell id="xUfsZl-nkuEJm2MdRDHm-15" value="Auteur" style="swimlane;fontStyle=0;childLayout=stackLayout;horizontal=1;startSize=30;horizontalStack=0;resizeParent=1;resizeParentMax=0;resizeLast=0;collapsible=1;marginBottom=0;whiteSpace=wrap;html=1;" vertex="1" parent="1">
          <mxGeometry x="520" y="360" width="160" height="120" as="geometry" />
        </mxCell>
        <mxCell id="xUfsZl-nkuEJm2MdRDHm-26" value="&lt;b&gt;id_auteur&lt;/b&gt;" style="text;strokeColor=none;fillColor=none;align=left;verticalAlign=middle;spacingLeft=4;spacingRight=4;overflow=hidden;points=[[0,0.5],[1,0.5]];portConstraint=eastwest;rotatable=0;whiteSpace=wrap;html=1;" vertex="1" parent="xUfsZl-nkuEJm2MdRDHm-15">
          <mxGeometry y="30" width="160" height="30" as="geometry" />
        </mxCell>
        <mxCell id="xUfsZl-nkuEJm2MdRDHm-16" value="Nom" style="text;strokeColor=none;fillColor=none;align=left;verticalAlign=middle;spacingLeft=4;spacingRight=4;overflow=hidden;points=[[0,0.5],[1,0.5]];portConstraint=eastwest;rotatable=0;whiteSpace=wrap;html=1;" vertex="1" parent="xUfsZl-nkuEJm2MdRDHm-15">
          <mxGeometry y="60" width="160" height="30" as="geometry" />
        </mxCell>
        <mxCell id="xUfsZl-nkuEJm2MdRDHm-17" value="Prénom" style="text;strokeColor=none;fillColor=none;align=left;verticalAlign=middle;spacingLeft=4;spacingRight=4;overflow=hidden;points=[[0,0.5],[1,0.5]];portConstraint=eastwest;rotatable=0;whiteSpace=wrap;html=1;" vertex="1" parent="xUfsZl-nkuEJm2MdRDHm-15">
          <mxGeometry y="90" width="160" height="30" as="geometry" />
        </mxCell>
        <mxCell id="xUfsZl-nkuEJm2MdRDHm-19" value="Exemplaire" style="swimlane;fontStyle=0;childLayout=stackLayout;horizontal=1;startSize=30;horizontalStack=0;resizeParent=1;resizeParentMax=0;resizeLast=0;collapsible=1;marginBottom=0;whiteSpace=wrap;html=1;" vertex="1" parent="1">
          <mxGeometry x="160" y="95" width="160" height="90" as="geometry" />
        </mxCell>
        <mxCell id="xUfsZl-nkuEJm2MdRDHm-23" value="&lt;b&gt;id_exemplaire&lt;/b&gt;" style="text;strokeColor=none;fillColor=none;align=left;verticalAlign=middle;spacingLeft=4;spacingRight=4;overflow=hidden;points=[[0,0.5],[1,0.5]];portConstraint=eastwest;rotatable=0;whiteSpace=wrap;html=1;" vertex="1" parent="xUfsZl-nkuEJm2MdRDHm-19">
          <mxGeometry y="30" width="160" height="30" as="geometry" />
        </mxCell>
        <mxCell id="xUfsZl-nkuEJm2MdRDHm-38" value="Edition" style="text;strokeColor=none;fillColor=none;align=left;verticalAlign=middle;spacingLeft=4;spacingRight=4;overflow=hidden;points=[[0,0.5],[1,0.5]];portConstraint=eastwest;rotatable=0;whiteSpace=wrap;html=1;" vertex="1" parent="xUfsZl-nkuEJm2MdRDHm-19">
          <mxGeometry y="60" width="160" height="30" as="geometry" />
        </mxCell>
        <mxCell id="xUfsZl-nkuEJm2MdRDHm-27" value="A écrit" style="ellipse;whiteSpace=wrap;html=1;" vertex="1" parent="1">
          <mxGeometry x="540" y="240" width="120" height="80" as="geometry" />
        </mxCell>
        <mxCell id="xUfsZl-nkuEJm2MdRDHm-28" value="" style="endArrow=none;html=1;rounded=0;" edge="1" parent="1" source="xUfsZl-nkuEJm2MdRDHm-15" target="xUfsZl-nkuEJm2MdRDHm-27">
          <mxGeometry width="50" height="50" relative="1" as="geometry">
            <mxPoint x="550" y="330" as="sourcePoint" />
            <mxPoint x="610" y="270" as="targetPoint" />
          </mxGeometry>
        </mxCell>
        <mxCell id="xUfsZl-nkuEJm2MdRDHm-29" value="" style="endArrow=none;html=1;rounded=0;" edge="1" parent="1" source="xUfsZl-nkuEJm2MdRDHm-27" target="xUfsZl-nkuEJm2MdRDHm-5">
          <mxGeometry width="50" height="50" relative="1" as="geometry">
            <mxPoint x="550" y="330" as="sourcePoint" />
            <mxPoint x="600" y="280" as="targetPoint" />
          </mxGeometry>
        </mxCell>
        <mxCell id="xUfsZl-nkuEJm2MdRDHm-30" value="0&amp;nbsp; N" style="text;html=1;align=center;verticalAlign=middle;whiteSpace=wrap;rounded=0;" vertex="1" parent="1">
          <mxGeometry x="570" y="330" width="60" height="30" as="geometry" />
        </mxCell>
        <mxCell id="xUfsZl-nkuEJm2MdRDHm-31" value="1&amp;nbsp; N" style="text;html=1;align=center;verticalAlign=middle;whiteSpace=wrap;rounded=0;" vertex="1" parent="1">
          <mxGeometry x="570" y="200" width="60" height="30" as="geometry" />
        </mxCell>
        <mxCell id="xUfsZl-nkuEJm2MdRDHm-32" value="Est un&lt;div&gt;exemplaire de&lt;/div&gt;" style="ellipse;whiteSpace=wrap;html=1;" vertex="1" parent="1">
          <mxGeometry x="360" y="100" width="120" height="80" as="geometry" />
        </mxCell>
        <mxCell id="xUfsZl-nkuEJm2MdRDHm-34" value="" style="endArrow=none;html=1;rounded=0;" edge="1" parent="1" source="xUfsZl-nkuEJm2MdRDHm-32" target="xUfsZl-nkuEJm2MdRDHm-5">
          <mxGeometry width="50" height="50" relative="1" as="geometry">
            <mxPoint x="350" y="210" as="sourcePoint" />
            <mxPoint x="400" y="160" as="targetPoint" />
          </mxGeometry>
        </mxCell>
        <mxCell id="xUfsZl-nkuEJm2MdRDHm-35" value="" style="endArrow=none;html=1;rounded=0;" edge="1" parent="1" source="xUfsZl-nkuEJm2MdRDHm-19" target="xUfsZl-nkuEJm2MdRDHm-32">
          <mxGeometry width="50" height="50" relative="1" as="geometry">
            <mxPoint x="335.5676988690029" y="149.89071017897334" as="sourcePoint" />
            <mxPoint x="440" y="147.89473684210532" as="targetPoint" />
            <Array as="points" />
          </mxGeometry>
        </mxCell>
        <mxCell id="xUfsZl-nkuEJm2MdRDHm-36" value="1&lt;br&gt;N" style="text;html=1;align=center;verticalAlign=middle;whiteSpace=wrap;rounded=0;" vertex="1" parent="1">
          <mxGeometry x="480" y="125" width="60" height="30" as="geometry" />
        </mxCell>
        <mxCell id="xUfsZl-nkuEJm2MdRDHm-37" value="1&lt;div&gt;1&lt;/div&gt;" style="text;html=1;align=center;verticalAlign=middle;whiteSpace=wrap;rounded=0;" vertex="1" parent="1">
          <mxGeometry x="300" y="125" width="60" height="30" as="geometry" />
        </mxCell>
        <mxCell id="xUfsZl-nkuEJm2MdRDHm-52" value="Emprunte" style="ellipse;whiteSpace=wrap;html=1;" vertex="1" parent="1">
          <mxGeometry x="180" y="240" width="120" height="80" as="geometry" />
        </mxCell>
        <mxCell id="xUfsZl-nkuEJm2MdRDHm-54" value="" style="endArrow=none;html=1;rounded=0;" edge="1" parent="1" source="xUfsZl-nkuEJm2MdRDHm-52" target="xUfsZl-nkuEJm2MdRDHm-10">
          <mxGeometry width="50" height="50" relative="1" as="geometry">
            <mxPoint x="220" y="310" as="sourcePoint" />
            <mxPoint x="240" y="360" as="targetPoint" />
          </mxGeometry>
        </mxCell>
        <mxCell id="xUfsZl-nkuEJm2MdRDHm-55" value="" style="endArrow=none;html=1;rounded=0;" edge="1" parent="1" source="xUfsZl-nkuEJm2MdRDHm-19" target="xUfsZl-nkuEJm2MdRDHm-52">
          <mxGeometry width="50" height="50" relative="1" as="geometry">
            <mxPoint x="220" y="310" as="sourcePoint" />
            <mxPoint x="270" y="260" as="targetPoint" />
          </mxGeometry>
        </mxCell>
        <mxCell id="xUfsZl-nkuEJm2MdRDHm-64" value="0&amp;nbsp; N" style="text;html=1;align=center;verticalAlign=middle;whiteSpace=wrap;rounded=0;" vertex="1" parent="1">
          <mxGeometry x="210" y="330" width="60" height="30" as="geometry" />
        </mxCell>
        <mxCell id="xUfsZl-nkuEJm2MdRDHm-65" value="0&amp;nbsp; N" style="text;html=1;align=center;verticalAlign=middle;whiteSpace=wrap;rounded=0;" vertex="1" parent="1">
          <mxGeometry x="210" y="185" width="60" height="30" as="geometry" />
        </mxCell>
        <mxCell id="xUfsZl-nkuEJm2MdRDHm-66" value="Pays" style="swimlane;fontStyle=0;childLayout=stackLayout;horizontal=1;startSize=30;horizontalStack=0;resizeParent=1;resizeParentMax=0;resizeLast=0;collapsible=1;marginBottom=0;whiteSpace=wrap;html=1;" vertex="1" parent="1">
          <mxGeometry x="880" y="375" width="160" height="90" as="geometry" />
        </mxCell>
        <mxCell id="xUfsZl-nkuEJm2MdRDHm-67" value="&lt;b&gt;id_pays&lt;/b&gt;" style="text;strokeColor=none;fillColor=none;align=left;verticalAlign=middle;spacingLeft=4;spacingRight=4;overflow=hidden;points=[[0,0.5],[1,0.5]];portConstraint=eastwest;rotatable=0;whiteSpace=wrap;html=1;" vertex="1" parent="xUfsZl-nkuEJm2MdRDHm-66">
          <mxGeometry y="30" width="160" height="30" as="geometry" />
        </mxCell>
        <mxCell id="xUfsZl-nkuEJm2MdRDHm-68" value="Nom" style="text;strokeColor=none;fillColor=none;align=left;verticalAlign=middle;spacingLeft=4;spacingRight=4;overflow=hidden;points=[[0,0.5],[1,0.5]];portConstraint=eastwest;rotatable=0;whiteSpace=wrap;html=1;" vertex="1" parent="xUfsZl-nkuEJm2MdRDHm-66">
          <mxGeometry y="60" width="160" height="30" as="geometry" />
        </mxCell>
        <mxCell id="xUfsZl-nkuEJm2MdRDHm-70" value="Est de" style="ellipse;whiteSpace=wrap;html=1;" vertex="1" parent="1">
          <mxGeometry x="720" y="380" width="120" height="80" as="geometry" />
        </mxCell>
        <mxCell id="xUfsZl-nkuEJm2MdRDHm-71" value="Type" style="swimlane;fontStyle=0;childLayout=stackLayout;horizontal=1;startSize=30;horizontalStack=0;resizeParent=1;resizeParentMax=0;resizeLast=0;collapsible=1;marginBottom=0;whiteSpace=wrap;html=1;" vertex="1" parent="1">
          <mxGeometry x="880" y="95" width="160" height="90" as="geometry" />
        </mxCell>
        <mxCell id="xUfsZl-nkuEJm2MdRDHm-72" value="&lt;b&gt;id_type&lt;/b&gt;" style="text;strokeColor=none;fillColor=none;align=left;verticalAlign=middle;spacingLeft=4;spacingRight=4;overflow=hidden;points=[[0,0.5],[1,0.5]];portConstraint=eastwest;rotatable=0;whiteSpace=wrap;html=1;" vertex="1" parent="xUfsZl-nkuEJm2MdRDHm-71">
          <mxGeometry y="30" width="160" height="30" as="geometry" />
        </mxCell>
        <mxCell id="xUfsZl-nkuEJm2MdRDHm-73" value="Nom" style="text;strokeColor=none;fillColor=none;align=left;verticalAlign=middle;spacingLeft=4;spacingRight=4;overflow=hidden;points=[[0,0.5],[1,0.5]];portConstraint=eastwest;rotatable=0;whiteSpace=wrap;html=1;" vertex="1" parent="xUfsZl-nkuEJm2MdRDHm-71">
          <mxGeometry y="60" width="160" height="30" as="geometry" />
        </mxCell>
        <mxCell id="xUfsZl-nkuEJm2MdRDHm-74" value="Appartient au type" style="ellipse;whiteSpace=wrap;html=1;" vertex="1" parent="1">
          <mxGeometry x="720" y="100" width="120" height="80" as="geometry" />
        </mxCell>
        <mxCell id="xUfsZl-nkuEJm2MdRDHm-76" value="" style="endArrow=none;html=1;rounded=0;" edge="1" parent="1" source="xUfsZl-nkuEJm2MdRDHm-74" target="xUfsZl-nkuEJm2MdRDHm-5">
          <mxGeometry width="50" height="50" relative="1" as="geometry">
            <mxPoint x="560" y="310" as="sourcePoint" />
            <mxPoint x="610" y="260" as="targetPoint" />
          </mxGeometry>
        </mxCell>
        <mxCell id="xUfsZl-nkuEJm2MdRDHm-77" value="" style="endArrow=none;html=1;rounded=0;" edge="1" parent="1" source="xUfsZl-nkuEJm2MdRDHm-71" target="xUfsZl-nkuEJm2MdRDHm-74">
          <mxGeometry width="50" height="50" relative="1" as="geometry">
            <mxPoint x="560" y="310" as="sourcePoint" />
            <mxPoint x="610" y="260" as="targetPoint" />
          </mxGeometry>
        </mxCell>
        <mxCell id="xUfsZl-nkuEJm2MdRDHm-78" value="" style="endArrow=none;html=1;rounded=0;" edge="1" parent="1" source="xUfsZl-nkuEJm2MdRDHm-70" target="xUfsZl-nkuEJm2MdRDHm-15">
          <mxGeometry width="50" height="50" relative="1" as="geometry">
            <mxPoint x="560" y="310" as="sourcePoint" />
            <mxPoint x="610" y="260" as="targetPoint" />
          </mxGeometry>
        </mxCell>
        <mxCell id="xUfsZl-nkuEJm2MdRDHm-79" value="" style="endArrow=none;html=1;rounded=0;" edge="1" parent="1" source="xUfsZl-nkuEJm2MdRDHm-66" target="xUfsZl-nkuEJm2MdRDHm-70">
          <mxGeometry width="50" height="50" relative="1" as="geometry">
            <mxPoint x="560" y="310" as="sourcePoint" />
            <mxPoint x="610" y="260" as="targetPoint" />
          </mxGeometry>
        </mxCell>
        <mxCell id="xUfsZl-nkuEJm2MdRDHm-80" value="1&lt;br&gt;N" style="text;html=1;align=center;verticalAlign=middle;whiteSpace=wrap;rounded=0;" vertex="1" parent="1">
          <mxGeometry x="660" y="405" width="60" height="30" as="geometry" />
        </mxCell>
        <mxCell id="xUfsZl-nkuEJm2MdRDHm-81" value="0&lt;br&gt;N" style="text;html=1;align=center;verticalAlign=middle;whiteSpace=wrap;rounded=0;" vertex="1" parent="1">
          <mxGeometry x="840" y="406" width="60" height="30" as="geometry" />
        </mxCell>
        <mxCell id="xUfsZl-nkuEJm2MdRDHm-83" value="1&lt;br&gt;N" style="text;html=1;align=center;verticalAlign=middle;whiteSpace=wrap;rounded=0;" vertex="1" parent="1">
          <mxGeometry x="660" y="125" width="60" height="30" as="geometry" />
        </mxCell>
        <mxCell id="xUfsZl-nkuEJm2MdRDHm-85" value="0&lt;br&gt;N" style="text;html=1;align=center;verticalAlign=middle;whiteSpace=wrap;rounded=0;" vertex="1" parent="1">
          <mxGeometry x="840" y="125" width="60" height="30" as="geometry" />
        </mxCell>
      </root>
    </mxGraphModel>
  </diagram>
</mxfile>
